<?xml version="1.0" encoding="utf-8"?>
<!-- Generator: Adobe Illustrator 21.1.0, SVG Export Plug-In . SVG Version: 6.00 Build 0)  -->
<!DOCTYPE svg PUBLIC "-//W3C//DTD SVG 1.1//EN" "http://www.w3.org/Graphics/SVG/1.1/DTD/svg11.dtd">
<svg version="1.1" id="Layer_1" xmlns="http://www.w3.org/2000/svg" xmlns:xlink="http://www.w3.org/1999/xlink" x="0px" y="0px"
	 viewBox="0 0 79.7 55.1" style="enable-background:new 0 0 79.7 55.1;" xml:space="preserve">
<style type="text/css">
	.st0{fill:#7497AE;}
	.st1{fill:#0F2547;}
	.st2{fill-rule:evenodd;clip-rule:evenodd;fill:#FFFFFF;}
	.st3{fill:#EC2127;}
</style>
<path class="st0" d="M41.7,21.4l10.9,6.5l-8.2-9.5c-0.4-0.4-1-0.5-1.4-0.1c-0.5,0.5-1,1.1-1.5,1.7C41.1,20.4,41.2,21.1,41.7,21.4z"
	/>
<path class="st0" d="M54.8,36.9l-7.2,12c-0.3,0.5-0.1,1.1,0.4,1.3c0.8,0.4,1.7,0.8,2.5,1.1c0.5,0.2,1.1-0.2,1.2-0.7L54.8,36.9z"/>
<path class="st0" d="M46.1,47.8l7.1-11.9l-10.4,9c-0.4,0.4-0.5,1-0.1,1.4c0.6,0.6,1.3,1.2,2,1.8C45.1,48.5,45.8,48.3,46.1,47.8z"/>
<path class="st0" d="M50.8,14.7l4.7,11l-1.2-12c-0.1-0.6-0.6-1-1.1-0.9c-0.6,0.1-1.1,0.3-1.7,0.4C50.8,13.4,50.5,14.1,50.8,14.7z"/>
<path class="st0" d="M45.7,17.2l8.1,9.4L49,15.2c-0.2-0.5-0.8-0.8-1.3-0.5c-0.6,0.3-1.2,0.7-1.8,1.1C45.4,16.1,45.4,16.8,45.7,17.2z
	"/>
<path class="st0" d="M56,13.5l1.2,12.4L60,13.8c0.1-0.6-0.3-1.2-0.9-1.3c-0.8-0.1-1.8-0.1-2.1-0.1C56.4,12.4,56,12.9,56,13.5z"/>
<path class="st0" d="M74.5,25.1l-11.7,4.9l12.8-1.3c0.6-0.1,1-0.6,0.8-1.2c-0.2-0.7-0.4-1.3-0.6-2C75.6,25.2,75,24.9,74.5,25.1z"/>
<path class="st0" d="M59,26.3l6.5-10.8c0.3-0.5,0.1-1.1-0.4-1.4c-0.7-0.3-1.4-0.6-2.1-0.8c-0.5-0.2-1.1,0.2-1.2,0.7L59,26.3z"/>
<path class="st0" d="M61.9,28.5l11.8-5c0.5-0.2,0.8-0.9,0.5-1.4c-0.4-0.6-0.8-1.3-1.3-1.9c-0.3-0.4-1-0.5-1.4-0.1L61.9,28.5z"/>
<path class="st0" d="M67.1,16.4l-6.5,10.8l9.6-8.3c0.4-0.4,0.5-1.1,0-1.4c-0.6-0.5-1.2-1-1.8-1.4C68,15.7,67.4,15.9,67.1,16.4z"/>
<path class="st0" d="M75.9,30.6l-13.3,1.3l13.1,3c0.6,0.1,1.1-0.3,1.2-0.8c0.1-0.8,0.1-1.7,0.1-2.5C76.9,31,76.4,30.5,75.9,30.6z"/>
<path class="st0" d="M63.7,50.1l-5.3-12.7l1.4,13.7c0.1,0.6,0.6,1,1.1,0.9c0.8-0.2,1.6-0.4,2.3-0.6C63.7,51.2,64,50.6,63.7,50.1z"/>
<path class="st0" d="M69.1,47L60,36.5l5.4,12.8c0.2,0.5,0.8,0.8,1.3,0.5c0.8-0.4,1.5-0.9,2.2-1.4C69.4,48.1,69.4,47.4,69.1,47z"/>
<path class="st0" d="M73.1,42.4l-11.8-7.1l9.1,10.5c0.4,0.4,1,0.5,1.4,0c0.6-0.7,1.1-1.4,1.6-2.1C73.7,43.3,73.6,42.6,73.1,42.4z"/>
<path class="st0" d="M75.5,36.7l-13.3-3L74,40.7c0.5,0.3,1.1,0.1,1.4-0.4c0.3-0.8,0.6-1.6,0.9-2.5C76.4,37.3,76,36.8,75.5,36.7z"/>
<path class="st0" d="M39,26.6l12.6,2.8l-11-6.6c-0.5-0.3-1.1-0.1-1.3,0.4c-0.4,0.7-0.7,1.4-1,2.2C38.1,25.9,38.4,26.5,39,26.6z"/>
<path class="st0" d="M51.1,33.1l-12.9,1.3c-0.5,0.1-0.9,0.5-0.9,1.1c0.1,0.7,0.3,1.4,0.4,2.1c0.2,0.6,0.8,0.9,1.3,0.7L51.1,33.1z"/>
<path class="st0" d="M38.1,32.5l13.1-1.3l-12.8-2.9c-0.5-0.1-1.1,0.2-1.2,0.8c-0.1,0.8-0.2,1.6-0.3,2.4C37,32.1,37.5,32.6,38.1,32.5
	z"/>
<path class="st0" d="M58,51.3l-1.4-14.1L53.5,51c-0.1,0.5,0.2,1.1,0.8,1.2c0.4,0.1,0.9,0.1,1.3,0.2c0.5,0,1,0,1.4,0
	C57.6,52.4,58,51.9,58,51.3z"/>
<path class="st0" d="M52,34.6l-12.4,5.2c-0.5,0.2-0.7,0.8-0.5,1.3c0.4,0.7,0.8,1.5,1.2,2.2c0.3,0.5,1,0.6,1.4,0.2L52,34.6z"/>
<path class="st1" d="M79.3,28.6C77.5,17.7,68.1,9.7,57,9.7L25.1,9.3C19.3,9.2,6.8,6.8,2.7,2.6L0.2,0L0.1,12.1c0,1.8,0.8,3.5,2.3,4.5
	c3.4,2.3,7.4,3.6,11.5,3.6l16.9-0.1c0,0-0.5,1.1,0,1.7l-17,0.1C8.8,21.8,3.9,20,0,16.9l0,0.4c0,2.6,0.3,5.2,1,7.6
	c0.7,2.4,2.4,4.4,4.7,5.4C8.3,31.4,11,32,13.7,32l20.7,0.1c0,0.6,0,1.1,0,1.7l0,0.1l-20.7-0.2c-3.4,0-6.8-0.9-9.9-2.4
	c4.5,7.5,19.6,12.6,29.1,12.7l4.6,0.1c4,6.7,11.3,11.1,19.5,11.1c1.3,0,2.6-0.1,3.8-0.3C73.1,52.6,81.4,40.9,79.3,28.6z M54.9,9.8
	c-0.2,0-0.5,0.1-0.7,0.1C54.4,9.9,54.6,9.9,54.9,9.8z M52.6,10.2c-0.1,0-0.1,0-0.2,0C52.5,10.2,52.6,10.2,52.6,10.2z M74.1,44.5
	c-3.2,4.6-8.1,7.6-13.6,8.6c-1.2,0.2-2.4,0.3-3.5,0.3c-10.3,0-19-7.4-20.7-17.5c-0.9-5.5,0.3-11.1,3.6-15.7
	c3.2-4.6,8.1-7.6,13.6-8.6c1.2-0.2,2.4-0.3,3.5-0.3h0c10.3,0,19,7.4,20.7,17.5C78.6,34.4,77.4,40,74.1,44.5z"/>
<path class="st2" d="M42.5,19.9l-12.8,0.3c-1,0-1.8,0.8-1.7,1.8c0.2,4.7,3.8,10.7,8.3,13.4c2.1,1.2,3.4,2.1,5.4,2.9
	c1,0.4,1.8,1.2,2.2,2.2c0.8,2.4,1.2,3.4,2.6,5c1.8,2.1,6.3,4.2,10.8,3.8c6.2-0.5,10.5-3.7,11.4-6.2c1.7-3.8,4.3-11,3.1-18.9
	C70.8,18.6,42.5,19.9,42.5,19.9z M35.6,32C32,29.6,29,22.3,34,22.2c1.4,0,4.4,0.5,5.1,0.8c1.6,0.7,2,2.3,1.9,4.6l0.1,0.9
	c0.2,2.3,0.5,3.3,0.9,5.4c0.1,0.5-0.3,0.8-0.8,0.7C38.9,33.7,37.6,33.4,35.6,32z"/>
<polygon class="st3" points="57.5,23.4 59.8,30 66.8,29.9 61.1,34.1 63.4,40.7 57.7,36.7 52.1,40.8 54.2,34.2 48.5,30.1 55.5,30 "/>
</svg>
